<svg xmlns="http://www.w3.org/2000/svg" width="64" height="64" viewBox="1558.00 8318.00 64 64" fill="none">
<path d="M1582.87 8358.56L1604.21 8352.91C1604.49 8352.84 1604.75 8352.72 1604.98 8352.54C1605.2 8352.37 1605.4 8352.15 1605.54 8351.9C1605.85 8351.38 1605.93 8350.84 1605.78 8350.28C1605.72 8350.01 1605.6 8349.77 1605.43 8349.56C1605.26 8349.34 1605.04 8349.17 1604.79 8349.06C1604.3 8348.8 1603.72 8348.74 1603.18 8348.89L1597.15 8350.51L1587.46 8341.43L1584.49 8342.13L1590.3 8352.31L1584.07 8353.86L1581.04 8351.56L1579.16 8352.07L1582.87 8358.56ZM1609.05 8368.17H1571.77C1570.57 8368.17 1569.53 8367.74 1568.68 8366.88C1567.82 8366.02 1567.39 8364.99 1567.39 8363.78V8355.82C1568.77 8355.55 1569.93 8354.88 1570.85 8353.79C1571.78 8352.7 1572.24 8351.43 1572.24 8349.99C1572.24 8348.55 1571.78 8347.28 1570.85 8346.2C1569.93 8345.11 1568.77 8344.43 1567.39 8344.17V8336.2C1567.39 8334.99 1567.82 8333.96 1568.68 8333.1C1569.53 8332.24 1570.57 8331.82 1571.77 8331.82H1609.05C1610.26 8331.82 1611.29 8332.24 1612.15 8333.1C1613.01 8333.96 1613.43 8334.99 1613.43 8336.2V8363.78C1613.43 8364.99 1613.01 8366.02 1612.15 8366.88C1611.29 8367.74 1610.26 8368.17 1609.05 8368.17ZM1609.05 8364.53C1609.27 8364.53 1609.45 8364.46 1609.59 8364.32C1609.73 8364.18 1609.8 8364 1609.8 8363.78V8336.2C1609.8 8336.1 1609.79 8336 1609.75 8335.91C1609.71 8335.82 1609.66 8335.73 1609.59 8335.66C1609.52 8335.59 1609.44 8335.54 1609.34 8335.5C1609.25 8335.46 1609.15 8335.45 1609.05 8335.45H1571.77C1571.68 8335.45 1571.58 8335.46 1571.48 8335.5C1571.39 8335.54 1571.31 8335.59 1571.24 8335.66C1571.17 8335.73 1571.11 8335.82 1571.08 8335.91C1571.04 8336 1571.03 8336.1 1571.03 8336.2V8341.63C1572.49 8342.49 1573.71 8343.71 1574.57 8345.17C1575.44 8346.63 1575.89 8348.3 1575.88 8349.99C1575.89 8351.68 1575.44 8353.35 1574.57 8354.81C1573.71 8356.27 1572.49 8357.49 1571.03 8358.35V8363.78C1571.03 8364 1571.1 8364.18 1571.24 8364.32C1571.38 8364.46 1571.56 8364.53 1571.77 8364.53L1609.05 8364.53Z" fill="#314252"/>
</svg>
