<svg xmlns="http://www.w3.org/2000/svg" width="27" height="27" viewBox="-1.5 -1.5 27 27" fill="none">
<!-- Handshake, based on Lucide's "handshake" icon (ISC license, lucide.dev), in the style of the other value icons. -->
<defs>
<linearGradient id="vh-gradient" x1="2" y1="3" x2="22" y2="21" gradientUnits="userSpaceOnUse">
<stop stop-color="#DC2760"/>
<stop offset="1" stop-color="#EF6327"/>
</linearGradient>
</defs>
<g stroke="url(#vh-gradient)" stroke-width="2" stroke-linecap="round" stroke-linejoin="round">
<path d="m11 17 2 2a1 1 0 1 0 3-3"/>
<path d="m14 14 2.5 2.5a1 1 0 1 0 3-3l-3.88-3.88a3 3 0 0 0-4.24 0l-.88.88a1 1 0 1 1-3-3l2.81-2.81a5.79 5.79 0 0 1 7.06-.87l.47.28a2 2 0 0 0 1.42.25L21 4"/>
<path d="m21 3 1 11h-2"/>
<path d="M3 3 2 14l6.5 6.5a1 1 0 1 0 3-3"/>
<path d="M3 4h8"/>
</g>
</svg>
